<svg xmlns="http://www.w3.org/2000/svg" viewBox="0 0 1500 1500">
<rect width="1500" height="1500" fill="#faf8f4"/>
<g font-family="Georgia, 'Times New Roman', serif" font-size="69" fill="#1a1a1a" text-anchor="middle">
<text y="151.0"><tspan x="127.0">I</tspan><tspan x="216.0">N</tspan><tspan x="305.0">S</tspan><tspan x="394.0">T</tspan><tspan x="483.0">I</tspan><tspan x="572.0">T</tspan><tspan x="661.0">U</tspan><tspan x="750.0">T</tspan><tspan x="839.0">I</tspan><tspan x="928.0">O</tspan><tspan x="1017.0">N</tspan><tspan x="1106.0">S</tspan><tspan x="1195.0">A</tspan><tspan x="1284.0">G</tspan><tspan x="1373.0">I</tspan></text>
<text y="240.0"><tspan x="127.0">N</tspan><tspan x="216.0">S</tspan><tspan x="305.0">T</tspan><tspan x="394.0">I</tspan><tspan x="483.0">T</tspan><tspan x="572.0">U</tspan><tspan x="661.0">T</tspan><tspan x="750.0">I</tspan><tspan x="839.0">O</tspan><tspan x="928.0">N</tspan><tspan x="1017.0">S</tspan><tspan x="1106.0">A</tspan><tspan x="1195.0">G</tspan><tspan x="1284.0">I</tspan><tspan x="1373.0">I</tspan></text>
<text y="329.0"><tspan x="127.0">S</tspan><tspan x="216.0">T</tspan><tspan x="305.0">I</tspan><tspan x="394.0">T</tspan><tspan x="483.0">U</tspan><tspan x="572.0">T</tspan><tspan x="661.0">I</tspan><tspan x="750.0">O</tspan><tspan x="839.0">N</tspan><tspan x="928.0">S</tspan><tspan x="1017.0">A</tspan><tspan x="1106.0">G</tspan><tspan x="1195.0">I</tspan><tspan x="1284.0">I</tspan><tspan x="1373.0">N</tspan></text>
<text y="418.0"><tspan x="127.0">T</tspan><tspan x="216.0">I</tspan><tspan x="305.0">T</tspan><tspan x="394.0">U</tspan><tspan x="483.0">T</tspan><tspan x="572.0">I</tspan><tspan x="661.0">O</tspan><tspan x="750.0">N</tspan><tspan x="839.0">S</tspan><tspan x="928.0">A</tspan><tspan x="1017.0">G</tspan><tspan x="1106.0">I</tspan><tspan x="1195.0">I</tspan><tspan x="1284.0">N</tspan><tspan x="1373.0">S</tspan></text>
<text y="507.0"><tspan x="127.0">I</tspan><tspan x="216.0">T</tspan><tspan x="305.0">U</tspan><tspan x="394.0">T</tspan><tspan x="483.0">I</tspan><tspan x="572.0">O</tspan><tspan x="661.0">N</tspan><tspan x="750.0">S</tspan><tspan x="839.0">A</tspan><tspan x="928.0">G</tspan><tspan x="1017.0">I</tspan><tspan x="1106.0">I</tspan><tspan x="1195.0">N</tspan><tspan x="1284.0">S</tspan><tspan x="1373.0">T</tspan></text>
<text y="596.0"><tspan x="127.0">T</tspan><tspan x="216.0">U</tspan><tspan x="305.0">T</tspan><tspan x="394.0">I</tspan><tspan x="483.0">O</tspan><tspan x="572.0">N</tspan><tspan x="661.0">S</tspan><tspan x="750.0">A</tspan><tspan x="839.0">G</tspan><tspan x="928.0">I</tspan><tspan x="1017.0">I</tspan><tspan x="1106.0">N</tspan><tspan x="1195.0">S</tspan><tspan x="1284.0">T</tspan><tspan x="1373.0">I</tspan></text>
<text y="685.0"><tspan x="127.0">U</tspan><tspan x="216.0">T</tspan><tspan x="305.0">I</tspan><tspan x="394.0">O</tspan><tspan x="483.0">N</tspan><tspan x="572.0">S</tspan><tspan x="661.0">A</tspan><tspan x="750.0">G</tspan><tspan x="839.0">I</tspan><tspan x="928.0">I</tspan><tspan x="1017.0">N</tspan><tspan x="1106.0">S</tspan><tspan x="1195.0">T</tspan><tspan x="1284.0">I</tspan><tspan x="1373.0">T</tspan></text>
<text y="774.0"><tspan x="127.0">T</tspan><tspan x="216.0">I</tspan><tspan x="305.0">O</tspan><tspan x="394.0">N</tspan><tspan x="483.0">S</tspan><tspan x="572.0">A</tspan><tspan x="661.0">G</tspan><tspan x="750.0">I</tspan><tspan x="839.0">I</tspan><tspan x="928.0">N</tspan><tspan x="1017.0">S</tspan><tspan x="1106.0">T</tspan><tspan x="1195.0">I</tspan><tspan x="1284.0">T</tspan><tspan x="1373.0">U</tspan></text>
<text y="863.0"><tspan x="127.0">I</tspan><tspan x="216.0">O</tspan><tspan x="305.0">N</tspan><tspan x="394.0">S</tspan><tspan x="483.0">A</tspan><tspan x="572.0">G</tspan><tspan x="661.0">I</tspan><tspan x="750.0">I</tspan><tspan x="839.0">N</tspan><tspan x="928.0">S</tspan><tspan x="1017.0">T</tspan><tspan x="1106.0">I</tspan><tspan x="1195.0">T</tspan><tspan x="1284.0">U</tspan><tspan x="1373.0">T</tspan></text>
<text y="952.0"><tspan x="127.0">O</tspan><tspan x="216.0">N</tspan><tspan x="305.0">S</tspan><tspan x="394.0">A</tspan><tspan x="483.0">G</tspan><tspan x="572.0">I</tspan><tspan x="661.0">I</tspan><tspan x="750.0">N</tspan><tspan x="839.0">S</tspan><tspan x="928.0">T</tspan><tspan x="1017.0">I</tspan><tspan x="1106.0">T</tspan><tspan x="1195.0">U</tspan><tspan x="1284.0">T</tspan><tspan x="1373.0">I</tspan></text>
<text y="1041.0"><tspan x="127.0">N</tspan><tspan x="216.0">S</tspan><tspan x="305.0">A</tspan><tspan x="394.0">G</tspan><tspan x="483.0">I</tspan><tspan x="572.0">I</tspan><tspan x="661.0">N</tspan><tspan x="750.0">S</tspan><tspan x="839.0">T</tspan><tspan x="928.0">I</tspan><tspan x="1017.0">T</tspan><tspan x="1106.0">U</tspan><tspan x="1195.0">T</tspan><tspan x="1284.0">I</tspan><tspan x="1373.0">O</tspan></text>
<text y="1130.0"><tspan x="127.0">S</tspan><tspan x="216.0">A</tspan><tspan x="305.0">G</tspan><tspan x="394.0">I</tspan><tspan x="483.0">I</tspan><tspan x="572.0">N</tspan><tspan x="661.0">S</tspan><tspan x="750.0">T</tspan><tspan x="839.0">I</tspan><tspan x="928.0">T</tspan><tspan x="1017.0">U</tspan><tspan x="1106.0">T</tspan><tspan x="1195.0">I</tspan><tspan x="1284.0">O</tspan><tspan x="1373.0">N</tspan></text>
<text y="1219.0"><tspan x="127.0">A</tspan><tspan x="216.0">G</tspan><tspan x="305.0">I</tspan><tspan x="394.0">I</tspan><tspan x="483.0">N</tspan><tspan x="572.0">S</tspan><tspan x="661.0">T</tspan><tspan x="750.0">I</tspan><tspan x="839.0">T</tspan><tspan x="928.0">U</tspan><tspan x="1017.0">T</tspan><tspan x="1106.0">I</tspan><tspan x="1195.0">O</tspan><tspan x="1284.0">N</tspan><tspan x="1373.0">S</tspan></text>
<text y="1308.0"><tspan x="127.0">G</tspan><tspan x="216.0">I</tspan><tspan x="305.0">I</tspan><tspan x="394.0">N</tspan><tspan x="483.0">S</tspan><tspan x="572.0">T</tspan><tspan x="661.0">I</tspan><tspan x="750.0">T</tspan><tspan x="839.0">U</tspan><tspan x="928.0">T</tspan><tspan x="1017.0">I</tspan><tspan x="1106.0">O</tspan><tspan x="1195.0">N</tspan><tspan x="1284.0">S</tspan><tspan x="1373.0">A</tspan></text>
<text y="1397.0"><tspan x="127.0">I</tspan><tspan x="216.0">I</tspan><tspan x="305.0">N</tspan><tspan x="394.0">S</tspan><tspan x="483.0">T</tspan><tspan x="572.0">I</tspan><tspan x="661.0">T</tspan><tspan x="750.0">U</tspan><tspan x="839.0">T</tspan><tspan x="928.0">I</tspan><tspan x="1017.0">O</tspan><tspan x="1106.0">N</tspan><tspan x="1195.0">S</tspan><tspan x="1284.0">A</tspan><tspan x="1373.0">G</tspan></text>
</g></svg>